<svg width="1000" height="496" viewBox="0 0 1000 496" fill="none" xmlns="http://www.w3.org/2000/svg">
  <path
    d="M195.023 18.8194H223.896C229.152 18.8194 233.481 19.5537 236.883 21.0225C240.284 22.4139 242.951 24.2305 244.884 26.4723C246.893 28.6368 248.285 31.1104 249.058 33.8933C249.831 36.5989 250.217 39.2272 250.217 41.7782C250.217 44.3292 249.831 46.9961 249.058 49.779C248.285 52.4846 246.893 54.9582 244.884 57.2C242.951 59.3645 240.284 61.1811 236.883 62.6498C233.481 64.0413 229.152 64.737 223.896 64.737H206.155V100.915H195.023V18.8194ZM206.155 54.9969H220.765C222.93 54.9969 225.055 54.8423 227.143 54.5331C229.307 54.1466 231.201 53.4895 232.824 52.5619C234.525 51.6342 235.878 50.3201 236.883 48.6194C237.888 46.8415 238.39 44.5611 238.39 41.7782C238.39 38.9953 237.888 36.7535 236.883 35.0529C235.878 33.2749 234.525 31.9221 232.824 30.9945C231.201 30.0669 229.307 29.4484 227.143 29.1392C225.055 28.7527 222.93 28.5595 220.765 28.5595H206.155V54.9969ZM269.555 73.4335C269.555 76.2164 269.981 78.8061 270.831 81.2024C271.681 83.5215 272.879 85.5314 274.425 87.232C275.971 88.8554 277.865 90.1695 280.107 91.1744C282.349 92.1021 284.861 92.5659 287.644 92.5659C290.427 92.5659 292.939 92.1021 295.181 91.1744C297.423 90.1695 299.317 88.8554 300.863 87.232C302.409 85.5314 303.607 83.5215 304.457 81.2024C305.308 78.8061 305.733 76.2164 305.733 73.4335C305.733 70.6506 305.308 68.0997 304.457 65.7806C303.607 63.3842 302.409 61.3744 300.863 59.751C299.317 58.0503 297.423 56.7362 295.181 55.8086C292.939 54.8036 290.427 54.3012 287.644 54.3012C284.861 54.3012 282.349 54.8036 280.107 55.8086C277.865 56.7362 275.971 58.0503 274.425 59.751C272.879 61.3744 271.681 63.3842 270.831 65.7806C269.981 68.0997 269.555 70.6506 269.555 73.4335ZM258.424 73.4335C258.424 69.4138 259.158 65.6646 260.627 62.186C262.173 58.7074 264.26 55.654 266.888 53.0257C269.517 50.3974 272.609 48.3489 276.165 46.8801C279.721 45.3341 283.547 44.5611 287.644 44.5611C291.741 44.5611 295.568 45.3341 299.124 46.8801C302.679 48.3489 305.772 50.3974 308.4 53.0257C311.028 55.654 313.077 58.7074 314.545 62.186C316.091 65.6646 316.864 69.4138 316.864 73.4335C316.864 77.4533 316.091 81.2411 314.545 84.797C313.077 88.2756 311.028 91.329 308.4 93.9573C305.772 96.5083 302.679 98.5568 299.124 100.103C295.568 101.572 291.741 102.306 287.644 102.306C283.547 102.306 279.721 101.572 276.165 100.103C272.609 98.5568 269.517 96.5083 266.888 93.9573C264.26 91.329 262.173 88.2756 260.627 84.797C259.158 81.2411 258.424 77.4533 258.424 73.4335ZM323.329 45.9525H335.04L347.447 87.0001H347.679L360.782 45.9525H371.798L385.712 87.0001H385.944L397.771 45.9525H408.787L391.046 100.915H380.494L366 59.867H365.768L352.665 100.915H341.418L323.329 45.9525ZM425.807 77.26C425.807 79.6564 426.31 81.8595 427.315 83.8694C428.397 85.8019 429.789 87.4639 431.489 88.8554C433.19 90.2468 435.161 91.329 437.403 92.1021C439.645 92.8751 441.964 93.2616 444.36 93.2616C447.607 93.2616 450.428 92.5272 452.825 91.0585C455.221 89.5124 457.424 87.5026 459.434 85.0289L467.319 91.0585C461.521 98.5568 453.404 102.306 442.969 102.306C438.64 102.306 434.697 101.572 431.141 100.103C427.663 98.6341 424.687 96.6243 422.213 94.0733C419.817 91.445 417.961 88.3916 416.647 84.9129C415.333 81.357 414.676 77.5306 414.676 73.4335C414.676 69.3365 415.372 65.5487 416.763 62.0701C418.232 58.5142 420.203 55.4607 422.677 52.9097C425.228 50.2815 428.243 48.2329 431.721 46.7642C435.2 45.2954 438.988 44.5611 443.085 44.5611C447.955 44.5611 452.052 45.4114 455.376 47.1121C458.777 48.8127 461.56 51.0545 463.724 53.8374C465.889 56.5429 467.435 59.635 468.362 63.1137C469.367 66.515 469.87 69.9936 469.87 73.5495V77.26H425.807ZM458.738 68.9113C458.661 66.5923 458.275 64.4664 457.579 62.5339C456.96 60.6013 455.994 58.9393 454.68 57.5479C453.366 56.0791 451.704 54.9582 449.694 54.1852C447.761 53.3349 445.481 52.9097 442.853 52.9097C440.302 52.9097 437.944 53.4122 435.779 54.4171C433.692 55.3448 431.914 56.5816 430.446 58.1276C428.977 59.6737 427.817 61.413 426.967 63.3456C426.194 65.2008 425.807 67.0561 425.807 68.9113H458.738ZM482.354 45.9525H492.79V54.4171H493.022C493.717 52.9484 494.645 51.6342 495.805 50.4747C496.964 49.2379 498.24 48.1943 499.631 47.344C501.1 46.4936 502.684 45.8366 504.385 45.3727C506.086 44.8316 507.786 44.5611 509.487 44.5611C511.188 44.5611 512.734 44.793 514.125 45.2568L513.661 56.5043C512.811 56.2724 511.961 56.0791 511.11 55.9245C510.26 55.7699 509.41 55.6926 508.559 55.6926C503.457 55.6926 499.554 57.1227 496.848 59.9829C494.143 62.8431 492.79 67.288 492.79 73.3176V100.915H482.354V45.9525ZM531.117 77.26C531.117 79.6564 531.619 81.8595 532.624 83.8694C533.707 85.8019 535.098 87.4639 536.799 88.8554C538.499 90.2468 540.471 91.329 542.712 92.1021C544.954 92.8751 547.273 93.2616 549.67 93.2616C552.916 93.2616 555.738 92.5272 558.134 91.0585C560.531 89.5124 562.734 87.5026 564.744 85.0289L572.628 91.0585C566.831 98.5568 558.714 102.306 548.278 102.306C543.949 102.306 540.007 101.572 536.451 100.103C532.972 98.6341 529.996 96.6243 527.522 94.0733C525.126 91.445 523.271 88.3916 521.957 84.9129C520.642 81.357 519.985 77.5306 519.985 73.4335C519.985 69.3365 520.681 65.5487 522.073 62.0701C523.541 58.5142 525.513 55.4607 527.986 52.9097C530.537 50.2815 533.552 48.2329 537.031 46.7642C540.509 45.2954 544.297 44.5611 548.394 44.5611C553.264 44.5611 557.361 45.4114 560.685 47.1121C564.086 48.8127 566.869 51.0545 569.034 53.8374C571.198 56.5429 572.744 59.635 573.672 63.1137C574.677 66.515 575.179 69.9936 575.179 73.5495V77.26H531.117ZM564.048 68.9113C563.97 66.5923 563.584 64.4664 562.888 62.5339C562.27 60.6013 561.304 58.9393 559.989 57.5479C558.675 56.0791 557.013 54.9582 555.003 54.1852C553.071 53.3349 550.79 52.9097 548.162 52.9097C545.611 52.9097 543.253 53.4122 541.089 54.4171C539.002 55.3448 537.224 56.5816 535.755 58.1276C534.286 59.6737 533.127 61.413 532.276 63.3456C531.503 65.2008 531.117 67.0561 531.117 68.9113H564.048ZM642.741 100.915H632.306V93.0297H632.074C630.064 95.9672 627.281 98.2476 623.725 99.871C620.246 101.494 616.652 102.306 612.941 102.306C608.69 102.306 604.825 101.572 601.346 100.103C597.945 98.6341 595.007 96.5856 592.533 93.9573C590.137 91.329 588.282 88.2756 586.968 84.797C585.654 81.3184 584.996 77.5306 584.996 73.4335C584.996 69.3365 585.654 65.5487 586.968 62.0701C588.282 58.5142 590.137 55.4607 592.533 52.9097C595.007 50.2815 597.945 48.2329 601.346 46.7642C604.825 45.2954 608.69 44.5611 612.941 44.5611C616.884 44.5611 620.594 45.4114 624.073 47.1121C627.551 48.7354 630.218 50.9772 632.074 53.8374H632.306V13.2536H642.741V100.915ZM614.217 92.5659C617 92.5659 619.512 92.1021 621.754 91.1744C623.996 90.1695 625.889 88.8554 627.435 87.232C628.982 85.5314 630.18 83.5215 631.03 81.2024C631.88 78.8061 632.306 76.2164 632.306 73.4335C632.306 70.6506 631.88 68.0997 631.03 65.7806C630.18 63.3842 628.982 61.3744 627.435 59.751C625.889 58.0503 623.996 56.7362 621.754 55.8086C619.512 54.8036 617 54.3012 614.217 54.3012C611.434 54.3012 608.922 54.8036 606.68 55.8086C604.438 56.7362 602.544 58.0503 600.998 59.751C599.452 61.3744 598.254 63.3842 597.403 65.7806C596.553 68.0997 596.128 70.6506 596.128 73.4335C596.128 76.2164 596.553 78.8061 597.403 81.2024C598.254 83.5215 599.452 85.5314 600.998 87.232C602.544 88.8554 604.438 90.1695 606.68 91.1744C608.922 92.1021 611.434 92.5659 614.217 92.5659ZM690.821 13.2536H701.257V53.8374H701.489C703.344 50.9772 706.011 48.7354 709.49 47.1121C712.969 45.4114 716.679 44.5611 720.621 44.5611C724.873 44.5611 728.7 45.2954 732.101 46.7642C735.579 48.2329 738.517 50.2815 740.913 52.9097C743.387 55.4607 745.281 58.5142 746.595 62.0701C747.909 65.5487 748.566 69.3365 748.566 73.4335C748.566 77.5306 747.909 81.3184 746.595 84.797C745.281 88.2756 743.387 91.329 740.913 93.9573C738.517 96.5856 735.579 98.6341 732.101 100.103C728.7 101.572 724.873 102.306 720.621 102.306C716.911 102.306 713.278 101.494 709.722 99.871C706.243 98.2476 703.499 95.9672 701.489 93.0297H701.257V100.915H690.821V13.2536ZM719.346 92.5659C722.129 92.5659 724.641 92.1021 726.883 91.1744C729.125 90.1695 731.019 88.8554 732.565 87.232C734.111 85.5314 735.309 83.5215 736.159 81.2024C737.01 78.8061 737.435 76.2164 737.435 73.4335C737.435 70.6506 737.01 68.0997 736.159 65.7806C735.309 63.3842 734.111 61.3744 732.565 59.751C731.019 58.0503 729.125 56.7362 726.883 55.8086C724.641 54.8036 722.129 54.3012 719.346 54.3012C716.563 54.3012 714.051 54.8036 711.809 55.8086C709.567 56.7362 707.673 58.0503 706.127 59.751C704.581 61.3744 703.383 63.3842 702.533 65.7806C701.682 68.0997 701.257 70.6506 701.257 73.4335C701.257 76.2164 701.682 78.8061 702.533 81.2024C703.383 83.5215 704.581 85.5314 706.127 87.232C707.673 88.8554 709.567 90.1695 711.809 91.1744C714.051 92.1021 716.563 92.5659 719.346 92.5659ZM755.098 45.9525H767.157L783.506 88.8554H783.738L799.276 45.9525H810.524L784.434 112.742C783.506 115.138 782.54 117.303 781.535 119.235C780.53 121.245 779.332 122.946 777.941 124.337C776.549 125.729 774.849 126.811 772.839 127.584C770.906 128.357 768.51 128.743 765.65 128.743C764.103 128.743 762.519 128.627 760.895 128.396C759.349 128.241 757.842 127.854 756.373 127.236L757.649 117.728C759.736 118.578 761.823 119.003 763.91 119.003C765.534 119.003 766.886 118.771 767.969 118.308C769.128 117.921 770.094 117.303 770.867 116.452C771.718 115.679 772.414 114.752 772.955 113.669C773.496 112.587 774.037 111.35 774.578 109.959L777.941 101.262L755.098 45.9525Z"
    fill="#F3F7FA" />
  <path
    d="M20.4311 226.058H87.7175C101.338 226.058 113.234 227.602 123.404 230.689C133.756 233.777 142.654 237.954 150.1 243.22C157.728 248.305 163.994 254.208 168.897 260.927C173.982 267.647 177.978 274.548 180.883 281.631C183.789 288.714 185.878 295.796 187.149 302.879C188.42 309.962 189.056 316.5 189.056 322.493C189.056 334.842 186.786 346.829 182.245 358.452C177.705 369.893 170.986 380.154 162.087 389.235C153.188 398.133 142.11 405.307 128.852 410.755C115.776 416.204 100.612 418.928 83.3589 418.928H20.4311V226.058ZM46.5829 394.41H79.5451C90.6233 394.41 101.066 392.958 110.873 390.052C120.861 386.964 129.579 382.424 137.025 376.431C144.471 370.438 150.373 362.992 154.732 354.093C159.09 345.013 161.269 334.479 161.269 322.493C161.269 316.318 160.271 309.145 158.273 300.972C156.275 292.618 152.461 284.718 146.832 277.272C141.383 269.826 133.756 263.561 123.949 258.475C114.142 253.209 101.429 250.575 85.8106 250.575H46.5829V394.41ZM230.793 363.355C230.793 368.985 231.973 374.161 234.334 378.883C236.877 383.423 240.146 387.328 244.141 390.597C248.136 393.866 252.767 396.408 258.034 398.224C263.301 400.04 268.749 400.948 274.379 400.948C282.007 400.948 288.635 399.223 294.265 395.772C299.895 392.14 305.071 387.418 309.793 381.607L328.317 395.772C314.696 413.389 295.627 422.197 271.11 422.197C260.94 422.197 251.678 420.471 243.324 417.021C235.151 413.57 228.159 408.848 222.348 402.855C216.718 396.681 212.359 389.507 209.272 381.335C206.185 372.98 204.641 363.991 204.641 354.365C204.641 344.74 206.275 335.841 209.544 327.669C212.995 319.315 217.626 312.141 223.437 306.148C229.431 299.973 236.513 295.161 244.686 291.71C252.858 288.259 261.757 286.534 271.382 286.534C282.824 286.534 292.449 288.532 300.258 292.527C308.249 296.523 314.787 301.789 319.872 308.327C324.957 314.684 328.59 321.948 330.769 330.121C333.13 338.111 334.31 346.284 334.31 354.638V363.355H230.793ZM308.158 343.741C307.977 338.293 307.069 333.299 305.434 328.758C303.981 324.218 301.711 320.314 298.624 317.045C295.537 313.594 291.632 310.961 286.91 309.145C282.37 307.147 277.012 306.148 270.838 306.148C264.845 306.148 259.305 307.329 254.22 309.689C249.317 311.869 245.14 314.775 241.689 318.407C238.239 322.039 235.515 326.125 233.517 330.665C231.701 335.024 230.793 339.383 230.793 343.741H308.158ZM373.991 363.355C373.991 368.985 375.172 374.161 377.533 378.883C380.075 383.423 383.344 387.328 387.34 390.597C391.335 393.866 395.966 396.408 401.233 398.224C406.499 400.04 411.948 400.948 417.578 400.948C425.205 400.948 431.834 399.223 437.464 395.772C443.094 392.14 448.27 387.418 452.992 381.607L471.516 395.772C457.895 413.389 438.826 422.197 414.309 422.197C404.139 422.197 394.876 420.471 386.522 417.021C378.35 413.57 371.358 408.848 365.546 402.855C359.917 396.681 355.558 389.507 352.471 381.335C349.383 372.98 347.839 363.991 347.839 354.365C347.839 344.74 349.474 335.841 352.743 327.669C356.194 319.315 360.825 312.141 366.636 306.148C372.629 299.973 379.712 295.161 387.884 291.71C396.057 288.259 404.956 286.534 414.581 286.534C426.023 286.534 435.648 288.532 443.457 292.527C451.448 296.523 457.986 301.789 463.071 308.327C468.156 314.684 471.788 321.948 473.967 330.121C476.328 338.111 477.509 346.284 477.509 354.638V363.355H373.991ZM451.357 343.741C451.175 338.293 450.267 333.299 448.633 328.758C447.18 324.218 444.91 320.314 441.823 317.045C438.735 313.594 434.831 310.961 430.109 309.145C425.568 307.147 420.211 306.148 414.036 306.148C408.043 306.148 402.504 307.329 397.419 309.689C392.515 311.869 388.338 314.775 384.888 318.407C381.437 322.039 378.713 326.125 376.715 330.665C374.899 335.024 373.991 339.383 373.991 343.741H451.357ZM498.666 289.803H523.183V308.327H523.728C528.45 301.426 534.897 296.069 543.069 292.255C551.423 288.441 559.959 286.534 568.676 286.534C578.665 286.534 587.655 288.259 595.645 291.71C603.818 295.161 610.719 299.973 616.349 306.148C622.16 312.323 626.61 319.587 629.697 327.941C632.785 336.114 634.328 344.922 634.328 354.365C634.328 363.991 632.785 372.98 629.697 381.335C626.61 389.507 622.16 396.681 616.349 402.855C610.719 408.848 603.818 413.57 595.645 417.021C587.655 420.471 578.665 422.197 568.676 422.197C559.414 422.197 550.697 420.29 542.524 416.476C534.352 412.481 528.086 407.123 523.728 400.404H523.183V495.749H498.666V289.803ZM565.68 309.417C559.142 309.417 553.239 310.597 547.973 312.958C542.706 315.138 538.257 318.225 534.624 322.221C530.992 326.034 528.177 330.756 526.18 336.386C524.182 341.834 523.183 347.828 523.183 354.365C523.183 360.903 524.182 366.987 526.18 372.617C528.177 378.066 530.992 382.787 534.624 386.783C538.257 390.597 542.706 393.684 547.973 396.045C553.239 398.224 559.142 399.314 565.68 399.314C572.218 399.314 578.12 398.224 583.387 396.045C588.653 393.684 593.103 390.597 596.735 386.783C600.367 382.787 603.182 378.066 605.18 372.617C607.178 366.987 608.176 360.903 608.176 354.365C608.176 347.828 607.178 341.834 605.18 336.386C603.182 330.756 600.367 326.034 596.735 322.221C593.103 318.225 588.653 315.138 583.387 312.958C578.12 310.597 572.218 309.417 565.68 309.417ZM723.77 226.058H747.47L830.011 418.928H799.501L780.159 371.255H688.356L669.287 418.928H638.776L723.77 226.058ZM770.625 348.372L734.666 259.838H734.121L697.618 348.372H770.625ZM846.929 226.058H914.76C927.109 226.058 937.28 227.783 945.27 231.234C953.261 234.503 959.527 238.771 964.067 244.038C968.789 249.123 972.058 254.934 973.874 261.472C975.69 267.828 976.598 274.003 976.598 279.996C976.598 286.171 975.508 292.164 973.329 297.976C971.15 303.606 967.972 308.781 963.795 313.503C959.799 318.043 954.805 321.948 948.812 325.217C943 328.304 936.462 330.211 929.198 330.938L983.953 418.928H951.264L902.229 333.934H873.081V418.928H846.929V226.058ZM873.081 311.052H907.405C912.49 311.052 917.484 310.688 922.388 309.962C927.473 309.054 931.922 307.51 935.736 305.331C939.731 303.151 942.909 300.064 945.27 296.069C947.631 291.892 948.812 286.534 948.812 279.996C948.812 273.458 947.631 268.192 945.27 264.196C942.909 260.019 939.731 256.841 935.736 254.662C931.922 252.482 927.473 251.029 922.388 250.303C917.484 249.395 912.49 248.941 907.405 248.941H873.081V311.052Z"
    fill="white" />
</svg>
  